<svg id="Слой_1" data-name="Слой 1" xmlns="http://www.w3.org/2000/svg" viewBox="0 0 60 60"><defs><style>.cls-1{fill:none}.cls-3{fill:#fff}</style></defs><path class="cls-1" d="M0 0h60v60H0z"/><path class="cls-1" d="M0 60h60V0H0v60z"/><text transform="matrix(1.15 0 0 1 2.17 40.23)" style="isolation:isolate" font-size="29.73" font-family="Haettenschweiler,Haettenschweiler">Ф</text><path class="cls-3" d="M14.79 36.91v3.33H9.54v-3.33q-6.76 0-6.76-7t6.76-7v-3.48h5.26v3.48c2.42 0 4.17.68 5.26 2.05a7.81 7.81 0 011.6 4.94 7.16 7.16 0 01-1.81 5.1 6.62 6.62 0 01-5.06 1.91zm0-11v8.06h.07c1.84 0 2.77-1.34 2.77-4a5.15 5.15 0 00-.75-2.82 2.34 2.34 0 00-2.09-1.27zm-5.25 8.03v-8.06a2.31 2.31 0 00-2 1.13 5.37 5.37 0 00-.72 2.88c-.08 2.71.84 4.05 2.72 4.05z"/><text transform="matrix(1.13 0 0 1 26.47 40.18)" style="isolation:isolate" font-size="29.59" font-family="Haettenschweiler,Haettenschweiler">Г</text><path class="cls-3" d="M36.66 19.47v2.66h-4.48v18.06H27V19.47z"/><text transform="matrix(1.75 0 0 1 32.47 40.47)" style="isolation:isolate" font-size="19.16" fill="#fff" font-family="Haettenschweiler,Haettenschweiler">О</text><text transform="matrix(1.65 0 0 1 40.68 40.51)" style="isolation:isolate" font-size="30.07" font-family="Haettenschweiler,Haettenschweiler">Т</text><path class="cls-3" d="M57.39 22.2h-4.25v18.31h-7.62V22.2h-4.26v-2.73H57.4v2.73z"/><path d="M22.48 37h-1.85l-.87 3.4h-5.62l4-13.17H25l4 13.17h-5.67zM22 34.76l-.41-2.1-.39 2.1z"/><path d="M22.48 37h-1.85l-.87 3.4h-5.62l4-13.17H25l4 13.17h-5.67zM22 34.76l-.41-2.1-.39 2.1z" fill="#fefefe"/><text transform="matrix(1.83 0 0 1 14.26 40.18)" style="isolation:isolate" font-size="18.06" fill="#fefefe" font-family="Haettenschweiler,Haettenschweiler">А</text><path d="M28.6 40.19h-5.07l-.86-3.4h-2.25l-.86 3.4h-5.07l3.81-12.65h6.49zM22.27 35l-.73-3.78-.69 3.78z" stroke="#000" stroke-miterlimit="10" stroke-width=".5" fill="#fff"/></svg>