<svg version="1.1" id="Capa_1" xmlns="http://www.w3.org/2000/svg" x="0" y="0" viewBox="0 0 496 496" xml:space="preserve"><path d="M440 102.256V96c0-52.936-43.064-96-96-96-39.568 0-75.008 24.608-89.304 60.848l-1.96-.432a23.485 23.485 0 00-19.896 4.632A23.512 23.512 0 00224 83.472c0 10.264 6.48 19.04 16 22.272V136c0 40.84 25.68 75.712 61.704 89.552-6.976 3.288-13.616 7.328-19.688 12.184L269.192 248h-55.864l-4.072-19c4.064-2.896 6.744-7.632 6.744-13h35.096l-3.92-11.76c-4.984-14.952-17.896-25.52-33.144-27.76-2.696-5.024-7.944-8.48-14.032-8.48h-32c-5.896 0-11 3.24-13.776 8H136c-8.824 0-16 7.176-16 16v16c0 8.824 7.176 16 16 16h18.224c1.664 2.848 4.144 5.144 7.16 6.528l7.016 28.048c-5.168 5.688-8.4 13.16-8.4 21.424 0 13.856 8.904 25.568 21.256 30.008l8.432 33.728c1.272 5.072 4.296 9.288 8.304 12.176C194.104 363.32 192 371.504 192 380v70.24l-9 3a21.908 21.908 0 00-15 20.816C168 486.16 177.84 496 189.944 496H288v-.32c2.464-.24 4.912-.6 7.32-1.152l93.088-21.488 8.296 12.44A23.594 23.594 0 00416.368 496C429.4 496 440 485.4 440 472.368V424c0-13.232-10.768-24-24-24h-24.208c5.08-6.704 8.208-14.96 8.208-24V248h-.12c-.44-12.152-7.432-22.56-17.552-27.968 26.24-14.528 44.936-40.992 48.84-72.016.416.024.84.136 1.256.136 5.312 0 10.496-1.8 14.736-5.2a23.512 23.512 0 008.84-18.424c0-10.264-6.48-19.04-16-22.272zm-224 91.176c3.984 1.336 7.616 3.52 10.472 6.568H216v-6.568zM152 208h-16v-16h16v16zm248 208h16c4.408 0 8 3.592 8 8v48.368c0 4.208-3.424 7.632-7.632 7.632a7.615 7.615 0 01-6.352-3.4L400 461.576V416zM344 16c44.112 0 80 35.888 80 80v2.472L270.568 64.376C283.048 35.464 311.88 16 344 16zm-88 120v-26.472l64 14.224V152h16c4.408 0 8 3.592 8 8s-3.592 8-8 8h-16v46.384c-36.472-7.432-64-39.752-64-78.384zm61.064 100.52l-19.96 9.984a83.688 83.688 0 0119.96-9.984zM168 216v-32h32l.008 32H168zm28.96 32H192c-3.28 0-6.384.64-9.36 1.56L178.248 232h15.28l3.432 16zM192 296c-8.824 0-16-7.176-16-16s7.176-16 16-16h99.056l16 32H192zm32.888 152H208v-68c0-7.344 2.216-14.376 6.36-20.384a21.505 21.505 0 0015.976-12.816c10.912-4.44 23.816-3.152 33.664 3.384v7.528l-31.224 49.952a57.689 57.689 0 00-8.776 30.6c0 3.32.344 6.56.888 9.736zm-19.68-108.152L198.248 312h12.424l5.208 24.288c.08.376.12.76.12 1.144v1.096a5.482 5.482 0 01-5.48 5.472 5.46 5.46 0 01-5.312-4.152zm25.664-9.952L227.04 312H264v20.144c-10.44-4.24-22.216-4.984-33.128-2.248zM189.944 480a5.948 5.948 0 01-5.944-5.944 5.936 5.936 0 014.064-5.64l13.24-4.416h28.832a57.643 57.643 0 0011.888 16h-52.08zM384 376c0 13.232-10.768 24-24 24h-64v16h88v41.632l-92.28 21.296c-3.064.712-6.224 1.072-9.984 1.072C258.72 480 240 461.28 240 438.264a41.72 41.72 0 016.344-22.128L276.432 368H384v8zm0-24H280v-40h42.072l60.856-33.816c.376-.208.704-.472 1.072-.696V352zm0-102.816a17.177 17.177 0 01-8.84 15.016l-51.744 28.744-16.688-33.368 51.528-25.768a17.477 17.477 0 017.688-1.808h.872c9.48 0 17.184 7.704 17.184 17.184zm53.152-118.712a7.666 7.666 0 01-6.416 1.496l-28.112-6.248-3.48 15.616 16.32 3.632C410.992 184.872 377.08 216 336 216v-32c13.232 0 24-10.768 24-24s-10.768-24-24-24v-8.696l46.232 10.272 3.472-15.616-139.736-31.048a7.58 7.58 0 01-5.968-7.44 7.579 7.579 0 012.848-5.944 7.61 7.61 0 016.424-1.496l184.76 41.056a7.58 7.58 0 015.968 7.44 7.579 7.579 0 01-2.848 5.944z"/><path d="M128 249.888l-15.792-22.944-27.84-2.056L96.488 200l-12.12-24.888 27.84-2.056L128 150.112l13.616 19.784 13.176-9.072L136 133.512V0H40v496h96V266.488l18.8-27.312-13.184-9.072L128 249.888zM120 480H56V16h64v117.512l-16.624 24.152-43.736 3.224L78.688 200 59.64 239.112l43.736 3.224L120 266.488V480zm152-352h16v16h-16z"/><path d="M72 32h16v64H72zm0 80h16v16H72zm16 160h16v64H88zM72 416h16v48H72z"/></svg>