<svg height="496pt" viewBox="0 -15 496 495" width="496pt" xmlns="http://www.w3.org/2000/svg"><path d="M424 128.5v-64H304V.5H0v464h496v-336zm56 16v48h-80v-48zm-96 0v48h-80v-48zm-32 112v-48h80v48zm-48 64v-48h80v48zm-48 64v-48h80v48zm-96 0v-48h80v48zm-16-176v48H64v-48zm48-64v48h-80v-48zm144 64v48h-80v-48zm-128 112v-48h80v48zm32-64h-80v-48h80zm-48 16v48h-80v-48zm96-80h-80v-48h80zm-128-64v-48h80v48zm-48-64v-48h80v48zm32 16v48H64v-48zm-96 48H16v-48h32zm48 16v48H16v-48zm-48 64v48H16v-48zm48 64v48H16v-48zm-48 64v48H16v-48zm16 0h80v48H64zm128 64v48h-80v-48zm16 0h80v48h-80zm96 0h80v48h-80zm48-16v-48h80v48zm96-48h32v48h-32zm-48-16v-48h80v48zm48-64v-48h32v48zm-40-128h-56v-48h56zm-72-48v48h-80v-48zm-48-16h-80v-48h80zm-192-48v48H16v-48zm-80 384h80v48H16zm384 48v-48h80v48zm0 0"/></svg>